<svg width="40" height="40" viewBox="0 0 40 40" fill="none" xmlns="http://www.w3.org/2000/svg">
  <circle cx="20" cy="20" r="18" fill="#7c5bff" />
  <path d="M20 28C20 28 26 25 26 20C26 15 20 12 20 12C20 12 14 15 14 20C14 25 20 28 20 28Z" fill="white" fill-opacity="0.3" />
  <path d="M20 28V12M20 28C20 28 26 25 26 20C26 15 20 12 20 12M20 28C20 28 14 15 14 20C14 25 20 12 20 12" stroke="white" stroke-width="1.5" stroke-linecap="round" stroke-linejoin="round" />
  <circle cx="20" cy="20" r="2.5" fill="white" />
</svg>
